<svg width="20" height="20" viewBox="0 0 20 20" fill="none" xmlns="http://www.w3.org/2000/svg">
<path d="M5.00012 1.24976H2.50012C2.1686 1.24976 1.85066 1.38145 1.61624 1.61587C1.38182 1.85029 1.25012 2.16824 1.25012 2.49976V4.99976" stroke="#F7634F" stroke-linecap="round" stroke-linejoin="round"/>
<path d="M15 1.24976H17.5C17.8315 1.24976 18.1495 1.38145 18.3839 1.61587C18.6183 1.85029 18.75 2.16824 18.75 2.49976V4.99976" stroke="#F7634F" stroke-linecap="round" stroke-linejoin="round"/>
<path d="M18.75 15V17.5C18.75 17.8315 18.6183 18.1495 18.3839 18.3839C18.1495 18.6183 17.8315 18.75 17.5 18.75H15" stroke="#F7634F" stroke-linecap="round" stroke-linejoin="round"/>
<path d="M5.00012 18.75H2.50012C2.1686 18.75 1.85066 18.6183 1.61624 18.3839C1.38182 18.1495 1.25012 17.8315 1.25012 17.5V15" stroke="#F7634F" stroke-linecap="round" stroke-linejoin="round"/>
<path d="M14.8375 8.125C14.9491 8.53217 15.0038 8.95283 15 9.375V14.375" stroke="#F7634F" stroke-linecap="round" stroke-linejoin="round"/>
<path d="M7.5 5.06218C8.49723 4.4823 9.66429 4.26507 10.8034 4.44733C11.9425 4.62958 12.9835 5.2001 13.75 6.06218" stroke="#F7634F" stroke-linecap="round" stroke-linejoin="round"/>
<path d="M4.99996 14.3748V9.37476C4.99485 8.49573 5.22812 7.63176 5.67496 6.87476" stroke="#F7634F" stroke-linecap="round" stroke-linejoin="round"/>
<path d="M12.5 9.37476C12.5 8.71171 12.2366 8.07583 11.7678 7.60699C11.2989 7.13815 10.663 6.87476 10 6.87476C9.33696 6.87476 8.70107 7.13815 8.23223 7.60699C7.76339 8.07583 7.5 8.71171 7.5 9.37476V10.6248" stroke="#F7634F" stroke-linecap="round" stroke-linejoin="round"/>
<path d="M12.5001 11.875V15.625" stroke="#F7634F" stroke-linecap="round" stroke-linejoin="round"/>
<path d="M7.5 13.125V15.625" stroke="#F7634F" stroke-linecap="round" stroke-linejoin="round"/>
<path d="M10 15.6248V14.3748" stroke="#F7634F" stroke-linecap="round" stroke-linejoin="round"/>
<path d="M10 11.875V9.375" stroke="#F7634F" stroke-linecap="round" stroke-linejoin="round"/>
</svg>
