<svg width="115" height="83" viewBox="0 0 115 83" fill="none" xmlns="http://www.w3.org/2000/svg">
<path d="M100.494 0.489202C100.37 0.340014 100.194 0.216533 99.9845 0.130799C99.7746 0.0450638 99.5374 0 99.2962 0C99.0549 0 98.8178 0.0450638 98.6079 0.130799C98.398 0.216533 98.2225 0.340014 98.0985 0.489202L84.2751 17.1911C84.1488 17.3438 84.0808 17.5178 84.0782 17.6956C84.0756 17.8733 84.1385 18.0484 84.2604 18.2029C84.3823 18.3574 84.5588 18.4859 84.7721 18.5751C84.9853 18.6644 85.2275 18.7113 85.4741 18.711H91.6839V24.2933C91.6991 24.5527 91.8527 24.7978 92.1127 24.9774C92.3727 25.1571 92.7188 25.2574 93.0789 25.2574C93.439 25.2574 93.7852 25.1571 94.0452 24.9774C94.3052 24.7978 94.4588 24.5527 94.474 24.2933V17.7062C94.4743 17.5741 94.4385 17.4432 94.3686 17.3211C94.2987 17.199 94.1961 17.088 94.0667 16.9945C93.9372 16.901 93.7834 16.8268 93.6142 16.7762C93.4449 16.7256 93.2634 16.6995 93.0802 16.6995H87.9295L99.2949 2.97604L110.66 16.7085H105.512C105.142 16.7085 104.787 16.8146 104.525 17.0034C104.263 17.1922 104.116 17.4482 104.116 17.7152V80.293H94.474V35.9946C94.4588 35.7352 94.3052 35.4901 94.0452 35.3105C93.7852 35.1308 93.439 35.0305 93.0789 35.0305C92.7188 35.0305 92.3727 35.1308 92.1127 35.3105C91.8527 35.4901 91.6991 35.7352 91.6839 35.9946V81.3086C91.6839 81.4407 91.72 81.5715 91.7902 81.6936C91.8604 81.8156 91.9633 81.9264 92.093 82.0198C92.2227 82.1131 92.3766 82.1871 92.546 82.2375C92.7154 82.2878 92.8969 82.3137 93.0802 82.3134H105.512C105.882 82.3134 106.236 82.2076 106.498 82.0191C106.759 81.8307 106.906 81.5751 106.906 81.3086V18.711H113.116C113.362 18.7113 113.605 18.6644 113.818 18.5751C114.031 18.4859 114.208 18.3574 114.33 18.2029C114.451 18.0484 114.514 17.8733 114.512 17.6956C114.509 17.5178 114.441 17.3438 114.315 17.1911L100.494 0.489202Z" fill="white" fill-opacity="0.25"/>
<path d="M93.0799 31.2117C93.4496 31.2117 93.8041 31.1058 94.0655 30.9174C94.3269 30.729 94.4737 30.4734 94.4737 30.2069V29.8467C94.4585 29.5874 94.3049 29.3423 94.0449 29.1626C93.785 28.983 93.4388 28.8827 93.0787 28.8827C92.7186 28.8827 92.3724 28.983 92.1124 29.1626C91.8525 29.3423 91.6988 29.5874 91.6836 29.8467V30.2069C91.6836 30.339 91.7197 30.4698 91.7899 30.5918C91.8601 30.7139 91.963 30.8247 92.0927 30.918C92.2224 31.0114 92.3764 31.0854 92.5458 31.1357C92.7152 31.1861 92.8967 31.2119 93.0799 31.2117Z" fill="white" fill-opacity="0.25"/>
<path d="M44.3908 56.9535H31.9588C31.7756 56.9533 31.5941 56.9791 31.4247 57.0295C31.2553 57.0799 31.1013 57.1538 30.9716 57.2472C30.8419 57.3405 30.739 57.4513 30.6688 57.5734C30.5986 57.6954 30.5625 57.8262 30.5625 57.9583V81.2978C30.5625 81.43 30.5986 81.5609 30.6688 81.683C30.739 81.8052 30.8418 81.9161 30.9715 82.0096C31.1011 82.1031 31.2551 82.1772 31.4245 82.2278C31.5939 82.2784 31.7755 82.3044 31.9588 82.3044H44.3908C44.5741 82.3044 44.7555 82.2784 44.9248 82.2278C45.0941 82.1772 45.2478 82.103 45.3773 82.0095C45.5067 81.916 45.6094 81.805 45.6793 81.6829C45.7492 81.5608 45.785 81.4299 45.7846 81.2978V57.9583C45.7846 57.6918 45.6378 57.4362 45.3764 57.2478C45.115 57.0594 44.7605 56.9535 44.3908 56.9535ZM42.9945 80.293H33.3526V58.9631H42.9945V80.293Z" fill="white" fill-opacity="0.25"/>
<path d="M13.8283 67.2412H1.39632C1.21307 67.241 1.03156 67.2668 0.862161 67.3172C0.692766 67.3676 0.538817 67.4415 0.409124 67.5349C0.27943 67.6282 0.176539 67.7391 0.106337 67.8611C0.0361346 67.9831 -2.94268e-07 68.1139 0 68.246V81.2979C0 81.5648 0.147112 81.8209 0.408973 82.0096C0.670833 82.1984 1.02599 82.3045 1.39632 82.3045H13.8283C14.0116 82.3045 14.193 82.2784 14.3623 82.2278C14.5316 82.1772 14.6853 82.103 14.8148 82.0095C14.9442 81.916 15.0469 81.8051 15.1168 81.6829C15.1867 81.5608 15.2225 81.43 15.2221 81.2979V68.246C15.2221 67.9795 15.0753 67.724 14.8139 67.5355C14.5525 67.3471 14.198 67.2412 13.8283 67.2412ZM12.4345 80.293H2.80263V69.2436H12.4345V80.293Z" fill="white" fill-opacity="0.25"/>
<path d="M74.9533 36.6284H62.5213C62.3381 36.6282 62.1566 36.654 61.9872 36.7044C61.8178 36.7548 61.6638 36.8288 61.5341 36.9221C61.4044 37.0154 61.3015 37.1263 61.2313 37.2483C61.1611 37.3703 61.125 37.5011 61.125 37.6332V81.2978C61.125 81.5648 61.2721 81.8208 61.534 82.0096C61.7958 82.1984 62.151 82.3044 62.5213 82.3044H74.9533C75.1366 82.3044 75.318 82.2784 75.4873 82.2278C75.6566 82.1771 75.8103 82.103 75.9398 82.0095C76.0692 81.916 76.1719 81.805 76.2418 81.6829C76.3117 81.5608 76.3475 81.4299 76.3471 81.2978V37.6332C76.3471 37.3667 76.2003 37.1112 75.9389 36.9227C75.6775 36.7343 75.323 36.6284 74.9533 36.6284ZM73.557 80.293H63.9151V38.6309H73.557V80.293Z" fill="white" fill-opacity="0.25"/>
</svg>
