<svg width="26" height="26" viewBox="0 0 26 26" fill="none" xmlns="http://www.w3.org/2000/svg">
<path d="M12.8243 9.42452C13.519 9.42452 14.0821 8.86136 14.0821 8.16667C14.0821 7.47197 13.519 6.90881 12.8243 6.90881C12.1296 6.90881 11.5664 7.47197 11.5664 8.16667C11.5664 8.86136 12.1296 9.42452 12.8243 9.42452Z" stroke="#FF4B5F" stroke-width="0.7" stroke-miterlimit="10" stroke-linecap="round" stroke-linejoin="round"/>
<path d="M10.9922 14.6638L11.6554 23.4358" stroke="#FF4B5F" stroke-width="0.7" stroke-miterlimit="10" stroke-linecap="round" stroke-linejoin="round"/>
<path d="M14.7994 14.6638L14.1719 23.4855" stroke="#FF4B5F" stroke-width="0.7" stroke-miterlimit="10" stroke-linecap="round" stroke-linejoin="round"/>
<path d="M12.918 16.5228V23.486" stroke="#FF4B5F" stroke-width="0.7" stroke-miterlimit="10" stroke-linecap="round" stroke-linejoin="round"/>
<path d="M13.5547 9.41162L14.3793 9.73085C14.7719 9.88282 15.0661 10.2161 15.1682 10.6245L16.1564 15.5015C16.2186 15.8086 16.0211 16.1083 15.7143 16.1722C15.4021 16.2372 15.0973 16.0333 15.0383 15.7199L14.2481 11.5642" stroke="#FF4B5F" stroke-width="0.7" stroke-miterlimit="10" stroke-linecap="round" stroke-linejoin="round"/>
<path d="M12.2811 9.41162L11.4565 9.73085C11.0639 9.88282 10.7697 10.2161 10.6676 10.6245L9.67942 15.5015C9.61721 15.8086 9.8147 16.1083 10.1215 16.1722C10.4337 16.2372 10.7385 16.0333 10.7975 15.7199L11.5877 11.5642" stroke="#FF4B5F" stroke-width="0.7" stroke-miterlimit="10" stroke-linecap="round" stroke-linejoin="round"/>
<path d="M15.5121 22.4496C16.7895 22.6983 17.6321 23.1253 17.6321 23.6103C17.6321 24.378 15.5205 25.0004 12.9157 25.0004C10.3109 25.0004 8.19922 24.378 8.19922 23.6103C8.19922 23.1318 9.01934 22.7098 10.2679 22.4597" stroke="#FF4B5F" stroke-width="0.7" stroke-miterlimit="10" stroke-linecap="round" stroke-linejoin="round"/>
<path d="M4.42287 2.61918C4.87 2.61918 5.23247 2.25672 5.23247 1.80959C5.23247 1.36247 4.87 1 4.42287 1C3.97575 1 3.61328 1.36247 3.61328 1.80959C3.61328 2.25672 3.97575 2.61918 4.42287 2.61918Z" stroke="#FF4B5F" stroke-width="0.7" stroke-miterlimit="10" stroke-linecap="round" stroke-linejoin="round"/>
<path d="M6.24574 11.2509C7.16202 11.411 7.76648 11.6858 7.76648 11.9979C7.76648 12.4921 6.25175 12.8927 4.38324 12.8927C2.51473 12.8927 1 12.4921 1 11.9979C1 11.69 1.58832 11.4184 2.4839 11.2574" stroke="#FF4B5F" stroke-width="0.7" stroke-miterlimit="10" stroke-linecap="round" stroke-linejoin="round"/>
<path d="M3.74215 2.42041L3.34467 2.70747C3.03245 2.93296 2.84518 3.29271 2.83952 3.67777L2.80516 6.0148C2.80099 6.29878 2.82433 6.58251 2.87492 6.86197L3.74215 11.6547" stroke="#FF4B5F" stroke-width="0.7" stroke-miterlimit="10" stroke-linecap="round" stroke-linejoin="round"/>
<path d="M5.05078 2.42041L5.44825 2.70747C5.76048 2.93296 5.94775 3.29271 5.95341 3.67777L5.98777 6.0148C5.99194 6.29878 5.9686 6.58251 5.91801 6.86197L5.05078 11.6547" stroke="#FF4B5F" stroke-width="0.7" stroke-miterlimit="10" stroke-linecap="round" stroke-linejoin="round"/>
<path d="M21.6026 2.61918C22.0497 2.61918 22.4122 2.25672 22.4122 1.80959C22.4122 1.36247 22.0497 1 21.6026 1C21.1554 1 20.793 1.36247 20.793 1.80959C20.793 2.25672 21.1554 2.61918 21.6026 2.61918Z" stroke="#FF4B5F" stroke-width="0.7" stroke-miterlimit="10" stroke-linecap="round" stroke-linejoin="round"/>
<path d="M23.4254 11.2509C24.3417 11.411 24.9462 11.6858 24.9462 11.9979C24.9462 12.4921 23.4314 12.8927 21.5629 12.8927C19.6944 12.8927 18.1797 12.4921 18.1797 11.9979C18.1797 11.69 18.768 11.4184 19.6636 11.2574" stroke="#FF4B5F" stroke-width="0.7" stroke-miterlimit="10" stroke-linecap="round" stroke-linejoin="round"/>
<path d="M20.9218 2.42041L20.5244 2.70747C20.2121 2.93296 20.0249 3.29271 20.0192 3.67777L19.9848 6.0148C19.9807 6.29878 20.004 6.58251 20.0546 6.86197L20.9218 11.6547" stroke="#FF4B5F" stroke-width="0.7" stroke-miterlimit="10" stroke-linecap="round" stroke-linejoin="round"/>
<path d="M22.2305 2.42041L22.6279 2.70747C22.9402 2.93296 23.1274 3.29271 23.1331 3.67777L23.1675 6.0148C23.1716 6.29878 23.1483 6.58251 23.0977 6.86197L22.2305 11.6547" stroke="#FF4B5F" stroke-width="0.7" stroke-miterlimit="10" stroke-linecap="round" stroke-linejoin="round"/>
</svg>
