<svg width="37" height="37" viewBox="0 0 37 37" fill="none" xmlns="http://www.w3.org/2000/svg">
<path d="M36.6055 22.1872L27.0126 22.1872L27.0126 18.4685C27.0126 13.7699 23.228 9.98523 18.5297 9.98523C13.8329 9.98523 10.0483 13.7699 10.0483 18.4669L10.0483 22.1872L0.455436 22.1872C2.08695 30.6689 9.52525 37.0006 18.5312 37.0006C27.4702 37.0006 34.9086 30.6719 36.6055 22.1872Z" fill="#003791"/>
<path d="M7.04906 18.4677C7.04906 12.1376 12.2036 6.98047 18.5319 6.98047C24.8603 6.98047 30.0163 12.136 30.0163 18.4648L30.0163 19.1839L37 19.1839L37 18.4662C37 8.28845 28.7117 -3.62292e-07 18.5335 -8.07197e-07C8.28828 -1.25503e-06 -3.623e-07 8.28846 -8.0725e-07 18.4677L-8.38622e-07 19.1854L7.046 19.1854L7.046 18.4677L7.04906 18.4677Z" fill="#FF4B5F"/>
</svg>
