<svg width="28" height="26" viewBox="0 0 28 26" fill="none" xmlns="http://www.w3.org/2000/svg">
<path d="M3.52857 13V13.1466L2.19303 11.7917C1.89723 11.4916 1.41705 11.4916 1.12126 11.7917C0.826248 12.091 0.826248 12.5757 1.12126 12.8749L3.74983 15.5416C4.04562 15.8417 4.52581 15.8417 4.8216 15.5416L7.45017 12.8749C7.74518 12.5757 7.74518 12.091 7.45017 11.7917C7.15438 11.4916 6.67419 11.4916 6.3784 11.7917L5.04286 13.1466V13C5.04286 7.16283 9.70684 2.43333 15.4571 2.43333C21.2074 2.43333 25.8714 7.16283 25.8714 13C25.8714 18.8372 21.2074 23.5667 15.4571 23.5667C12.9464 23.5667 10.575 22.663 8.70368 21.044C7.88808 20.3383 7.18301 19.5089 6.61565 18.5866C6.39462 18.2273 5.92708 18.1169 5.57158 18.3419C5.21696 18.5664 5.10982 19.0389 5.33033 19.3973C5.97975 20.453 6.78657 21.4021 7.71997 22.2097C9.86273 24.0636 12.582 25.1 15.4571 25.1C22.0465 25.1 27.3857 19.6813 27.3857 13C27.3857 6.31872 22.0465 0.9 15.4571 0.9C8.86782 0.9 3.52857 6.31872 3.52857 13ZM20.7533 15.3015C20.9172 14.9135 20.7406 14.4628 20.3559 14.2955L16.0682 12.4313L14.2041 6.75797C14.0724 6.35693 13.6439 6.13823 13.2459 6.27281C12.8486 6.40717 12.6357 6.84161 12.7673 7.24203L14.7387 13.242C14.8069 13.4495 14.9594 13.6179 15.1584 13.7045L19.7584 15.7045C20.1439 15.8721 20.589 15.6903 20.7533 15.3015Z" fill="#292929" stroke="white" stroke-width="0.2"/>
</svg>
