<svg width="30" height="33" viewBox="0 0 30 33" fill="none" xmlns="http://www.w3.org/2000/svg">
<path d="M13.4727 28.9997V21.3573L14.9208 21.5946L16.369 21.3573V28.9997H13.4727Z" fill="#003791" fill-opacity="0.29"/>
<path d="M4.98342 2.89639C4.98342 2.89639 -0.0182 0.395581 5.40861e-05 5.29377C5.40861e-05 5.29377 -0.0486235 9.61999 2.77468 13.1674C2.77468 13.1674 4.97734 16.2949 8.79245 17.4875C8.79245 17.4875 7.73371 15.8568 7.20434 14.6155C7.20434 14.6155 3.73606 12.6441 2.4887 8.5795C2.4887 8.5795 0.286036 2.99983 4.97734 4.98345V2.89639H4.98342Z" fill="#003791" fill-opacity="0.29"/>
<path d="M14.9217 21.5946C17.4347 21.5946 19.5218 19.325 19.5218 19.325C22.1077 16.7147 23.5194 12.285 23.5194 12.285C25.3631 7.45984 24.6877 0 24.6877 0H14.9217H5.14968C5.14968 0 4.48037 7.45984 6.32403 12.285C6.32403 12.285 7.73568 16.7208 10.3217 19.325C10.3217 19.325 12.4087 21.5946 14.9217 21.5946Z" fill="#003791" fill-opacity="0.29"/>
<path d="M24.8871 2.89639C24.8871 2.89639 29.8888 0.395581 29.8705 5.29377C29.8705 5.29377 29.9192 9.61999 27.0959 13.1674C27.0959 13.1674 24.8932 16.2949 21.0781 17.4875C21.0781 17.4875 22.1369 15.8568 22.6662 14.6155C22.6662 14.6155 26.1345 12.6441 27.3819 8.5795C27.3819 8.5795 29.5845 2.99983 24.8932 4.98345V2.89639H24.8871Z" fill="#003791" fill-opacity="0.29"/>
<path d="M23.6149 29.9368H6.21875V32.468H23.6149V29.9368Z" fill="#003791" fill-opacity="0.29"/>
<path d="M17.9005 28.9998H11.9375V29.9368H17.9005V28.9998Z" fill="#003791" fill-opacity="0.29"/>
</svg>
