<svg width="44" height="55" viewBox="0 0 44 55" fill="none" xmlns="http://www.w3.org/2000/svg">
<path d="M26.739 0.0209999L26.7227 0.270468C26.8529 0.27898 26.9777 0.304399 27.1026 0.348014L27.1025 0.348039L27.1059 0.349171C27.1279 0.3565 27.1536 0.364043 27.1724 0.369536C27.1789 0.371457 27.1846 0.373127 27.189 0.374451C27.2102 0.380867 27.223 0.385378 27.2326 0.38963C27.3857 0.460503 27.521 0.544274 27.6364 0.653857C27.6365 0.653977 27.6367 0.654097 27.6368 0.654218L42.6343 15.0374C42.6346 15.0378 42.6349 15.0382 42.6352 15.0387C42.6409 15.046 42.6479 15.0544 42.6566 15.0632C42.6594 15.0675 42.6664 15.0782 42.6737 15.0884C42.6815 15.0993 42.6924 15.1135 42.7064 15.1286C42.8063 15.238 42.8859 15.3562 42.9458 15.4834L42.9457 15.4834L42.9476 15.4871C42.9601 15.5126 42.9682 15.5365 42.9813 15.575C42.9863 15.5898 42.9921 15.6067 42.9991 15.6268L42.9992 15.6269C43.042 15.7487 43.0667 15.8737 43.0754 16.0058M26.739 0.0209999L26.7255 0.270635C26.6969 0.269089 26.6726 0.264415 26.6545 0.260137C26.6398 0.256649 26.6254 0.252416 26.6185 0.250376L26.6172 0.25H1.699C0.899166 0.25 0.25 0.898974 0.25 1.7V52.67C0.25 53.47 0.898168 54.119 1.699 54.119H36.828C40.2849 54.119 43.096 51.307 43.096 47.849V16.1141C43.096 16.114 43.0959 16.1138 43.0959 16.1137L43.0952 16.1115C43.0932 16.1043 43.089 16.0898 43.0855 16.0748C43.0814 16.057 43.077 16.0334 43.0754 16.0058M26.739 0.0209999C26.892 0.0309999 27.039 0.0609995 27.185 0.112L26.739 0.0209999ZM43.0754 16.0058C43.0754 16.0052 43.0754 16.0047 43.0753 16.0041L43.325 15.991L43.0755 16.0072C43.0755 16.0067 43.0755 16.0062 43.0754 16.0058ZM28.505 5.50457L28.082 5.09884V5.685V11.279C28.082 13.138 29.5929 14.649 31.451 14.649H37.418H38.0399L37.591 14.2186L28.505 5.50457ZM3.399 3.149H3.149V3.399V50.97V51.22H3.399H36.828C38.6852 51.22 40.196 49.709 40.196 47.85V17.8V17.55H39.946H31.451C27.9931 17.55 25.181 14.737 25.181 11.28V3.399V3.149H24.931H3.399ZM42.6171 15.0123C42.6169 15.012 42.6168 15.0119 42.617 15.0122L42.6171 15.0123Z" fill="black" fill-opacity="0.47" stroke="#F4F8FB" stroke-width="0.5"/>
</svg>
