<svg width="232" height="77" viewBox="0 0 232 77" fill="none" xmlns="http://www.w3.org/2000/svg">
<path d="M46.1724 0.819702V20.7832H38.4336C28.6554 20.7832 20.7793 28.6591 20.7793 38.4367C20.7793 48.2111 28.6554 56.087 38.4303 56.087H46.1724V76.0505C63.8234 72.6552 77.0002 57.1756 77.0002 38.4335C77.0002 19.8307 63.8298 4.35104 46.1724 0.819702Z" fill="#003791"/>
<path d="M38.4326 62.33C25.2591 62.33 14.5268 51.603 14.5268 38.4334C14.5268 25.2636 25.2559 14.5335 38.4265 14.5335H39.9231V0H38.4295C17.2489 0 0 17.2485 0 38.4301C0 59.7511 17.2489 76.9996 38.4326 76.9996H39.9262V62.3364H38.4326V62.33Z" fill="#FF4B5F"/>
<path d="M98.9844 27.418L98.8086 32.4277H97.1191V29H95.7227V27.418H98.9844ZM86.709 29V14.7812H88.6035V27.4668H95.6055V14.7812H97.4902V29H86.709ZM110.512 27.4668V29H102.983V27.4668H110.512ZM103.364 14.7812V29H101.479V14.7812H103.364ZM109.516 20.8945V22.4277H102.983V20.8945H109.516ZM110.415 14.7812V16.3242H102.983V14.7812H110.415ZM122.334 20.8945V22.4277H114.638V20.8945H122.334ZM114.931 14.7812V29H113.046V14.7812H114.931ZM123.974 14.7812V29H122.099V14.7812H123.974ZM132.485 14.7812V29H130.629V14.7812H132.485ZM137.055 14.7812V16.3242H126.069V14.7812H137.055ZM144.609 23.4238H140.81V21.8906H144.609C145.344 21.8906 145.94 21.7734 146.396 21.5391C146.851 21.3047 147.183 20.9792 147.392 20.5625C147.607 20.1458 147.714 19.6706 147.714 19.1367C147.714 18.6484 147.607 18.1895 147.392 17.7598C147.183 17.3301 146.851 16.985 146.396 16.7246C145.94 16.4577 145.344 16.3242 144.609 16.3242H141.249V29H139.364V14.7812H144.609C145.683 14.7812 146.591 14.9668 147.333 15.3379C148.075 15.709 148.639 16.2233 149.023 16.8809C149.407 17.5319 149.599 18.2773 149.599 19.1172C149.599 20.0286 149.407 20.8066 149.023 21.4512C148.639 22.0957 148.075 22.5872 147.333 22.9258C146.591 23.2578 145.683 23.4238 144.609 23.4238Z" fill="#003791"/>
<path d="M91.7188 54.3496H88.1152L88.0957 52.8359H91.3672C91.9076 52.8359 92.3796 52.7448 92.7832 52.5625C93.1868 52.3802 93.4993 52.1198 93.7207 51.7812C93.9486 51.4362 94.0625 51.026 94.0625 50.5508C94.0625 50.0299 93.9616 49.6068 93.7598 49.2812C93.5645 48.9492 93.2617 48.7083 92.8516 48.5586C92.4479 48.4023 91.9336 48.3242 91.3086 48.3242H88.5352V61H86.6504V46.7812H91.3086C92.0378 46.7812 92.6888 46.8561 93.2617 47.0059C93.8346 47.1491 94.3197 47.377 94.7168 47.6895C95.1204 47.9954 95.4264 48.3861 95.6348 48.8613C95.8431 49.3366 95.9473 49.9062 95.9473 50.5703C95.9473 51.1562 95.7975 51.6868 95.498 52.1621C95.1986 52.6309 94.7819 53.015 94.248 53.3145C93.7207 53.6139 93.1022 53.806 92.3926 53.8906L91.7188 54.3496ZM91.6309 61H87.373L88.4375 59.4668H91.6309C92.2298 59.4668 92.7376 59.3626 93.1543 59.1543C93.5775 58.946 93.8997 58.653 94.1211 58.2754C94.3424 57.8913 94.4531 57.4388 94.4531 56.918C94.4531 56.3906 94.3587 55.9349 94.1699 55.5508C93.9811 55.1667 93.6849 54.8704 93.2812 54.6621C92.8776 54.4538 92.3568 54.3496 91.7188 54.3496H89.0332L89.0527 52.8359H92.7246L93.125 53.3828C93.8086 53.4414 94.388 53.6367 94.8633 53.9688C95.3385 54.2943 95.6999 54.7109 95.9473 55.2188C96.2012 55.7266 96.3281 56.2865 96.3281 56.8984C96.3281 57.7839 96.1328 58.5326 95.7422 59.1445C95.3581 59.75 94.8145 60.2122 94.1113 60.5312C93.4082 60.8438 92.5814 61 91.6309 61ZM104.575 48.041L99.868 61H97.9441L103.364 46.7812H104.604L104.575 48.041ZM108.52 61L103.804 48.041L103.774 46.7812H105.014L110.454 61H108.52ZM108.276 55.7363V57.2793H100.288V55.7363H108.276ZM112.627 46.7812H114.521V59.4668H119.404V46.7812H121.279V59.4668H126.132V46.7812H128.017V61H112.627V46.7812ZM133.549 57.7383L140.551 46.7812H142.436V61H140.551V50.0332L133.549 61H131.674V46.7812H133.549V57.7383ZM147.46 46.7812L150.878 52.2305L154.296 46.7812H156.493L152.001 53.8223L156.601 61H154.384L150.878 55.4434L147.372 61H145.155L149.755 53.8223L145.263 46.7812H147.46Z" fill="#FF4B5F"/>
<path d="M168.495 54.1738H166.805V52.9727H168.427C169.143 52.9727 169.722 52.8717 170.165 52.6699C170.608 52.4681 170.93 52.1882 171.132 51.8301C171.333 51.472 171.434 51.0586 171.434 50.5898C171.434 50.1406 171.324 49.7305 171.102 49.3594C170.881 48.9818 170.539 48.6823 170.077 48.4609C169.615 48.2331 169.019 48.1191 168.29 48.1191C167.743 48.1191 167.248 48.2233 166.805 48.4316C166.363 48.6335 166.011 48.9167 165.751 49.2812C165.49 49.6393 165.36 50.0527 165.36 50.5215H163.475C163.475 49.916 163.602 49.3724 163.856 48.8906C164.11 48.4023 164.458 47.9889 164.901 47.6504C165.344 47.3053 165.855 47.0417 166.434 46.8594C167.02 46.6771 167.639 46.5859 168.29 46.5859C169.052 46.5859 169.742 46.6738 170.36 46.8496C170.979 47.0189 171.509 47.2728 171.952 47.6113C172.395 47.9499 172.733 48.3698 172.968 48.8711C173.202 49.3724 173.319 49.9551 173.319 50.6191C173.319 51.1074 173.205 51.5664 172.977 51.9961C172.749 52.4258 172.424 52.8034 172.001 53.1289C171.578 53.4544 171.07 53.7116 170.477 53.9004C169.885 54.0827 169.224 54.1738 168.495 54.1738ZM166.805 53.3438H168.495C169.296 53.3438 170.009 53.4251 170.634 53.5879C171.259 53.7507 171.786 53.9883 172.216 54.3008C172.645 54.6133 172.971 55.0007 173.192 55.4629C173.42 55.9186 173.534 56.4427 173.534 57.0352C173.534 57.6992 173.404 58.2884 173.143 58.8027C172.889 59.3171 172.528 59.7533 172.059 60.1113C171.591 60.4694 171.034 60.7396 170.389 60.9219C169.751 61.1042 169.052 61.1953 168.29 61.1953C167.678 61.1953 167.072 61.1172 166.473 60.9609C165.881 60.7982 165.344 60.5508 164.862 60.2188C164.38 59.8802 163.993 59.4505 163.7 58.9297C163.414 58.4089 163.27 57.7839 163.27 57.0547H165.155C165.155 57.5299 165.285 57.9661 165.546 58.3633C165.813 58.7604 166.18 59.0794 166.649 59.3203C167.118 59.5547 167.665 59.6719 168.29 59.6719C169.006 59.6719 169.611 59.5612 170.106 59.3398C170.608 59.112 170.988 58.8027 171.249 58.4121C171.516 58.015 171.649 57.569 171.649 57.0742C171.649 56.638 171.578 56.2604 171.434 55.9414C171.298 55.6159 171.093 55.349 170.819 55.1406C170.552 54.9323 170.217 54.7793 169.813 54.6816C169.416 54.5775 168.954 54.5254 168.427 54.5254H166.805V53.3438ZM181.478 48.041L176.771 61H174.847L180.267 46.7812H181.507L181.478 48.041ZM185.423 61L180.707 48.041L180.677 46.7812H181.918L187.357 61H185.423ZM185.179 55.7363V57.2793H177.191V55.7363H185.179ZM200.838 59.4668V61H190.077V59.4668H200.838ZM190.379 59.4668V64.4961H188.514L188.504 59.4668H190.379ZM202.479 59.4668L202.459 64.4863H200.594V59.4668H202.479ZM198.993 46.7812V48.3242H192.762V46.7812H198.993ZM200.614 46.7812V61H198.739V46.7812H200.614ZM192.118 46.7812H194.002L193.709 52.5039C193.67 53.3633 193.589 54.1576 193.465 54.8867C193.342 55.6094 193.189 56.2702 193.006 56.8691C192.824 57.4681 192.616 58.0052 192.381 58.4805C192.147 58.9492 191.896 59.3561 191.629 59.7012C191.362 60.0397 191.082 60.3197 190.789 60.541C190.503 60.7559 190.213 60.9089 189.92 61H189.061V59.4668H189.666C189.836 59.2845 190.028 59.0208 190.243 58.6758C190.464 58.3307 190.682 57.8848 190.897 57.3379C191.118 56.7845 191.31 56.1107 191.473 55.3164C191.642 54.5221 191.756 53.5846 191.815 52.5039L192.118 46.7812ZM210.316 48.041L205.609 61H203.685L209.105 46.7812H210.345L210.316 48.041ZM214.261 61L209.544 48.041L209.515 46.7812H210.755L216.195 61H214.261ZM214.017 55.7363V57.2793H206.029V55.7363H214.017ZM217.576 46.7812H219.461V51.2246C219.461 51.9603 219.568 52.5365 219.783 52.9531C219.998 53.3698 220.324 53.6628 220.76 53.832C221.196 54.0013 221.74 54.0859 222.391 54.0859C222.781 54.0859 223.159 54.0697 223.523 54.0371C223.895 54.0046 224.256 53.959 224.607 53.9004C224.959 53.8418 225.304 53.7702 225.643 53.6855C225.988 53.6009 226.326 53.5098 226.658 53.4121V54.9551C226.339 55.0527 226.02 55.1439 225.701 55.2285C225.389 55.3132 225.063 55.3848 224.725 55.4434C224.393 55.502 224.035 55.5475 223.65 55.5801C223.273 55.6126 222.853 55.6289 222.391 55.6289C221.388 55.6289 220.525 55.4857 219.803 55.1992C219.087 54.9062 218.536 54.4375 218.152 53.793C217.768 53.1484 217.576 52.2923 217.576 51.2246V46.7812ZM226.18 46.7812H228.064V61H226.18V46.7812Z" fill="#003791"/>
</svg>
