<svg width="77" height="77" viewBox="0 0 77 77" fill="none" xmlns="http://www.w3.org/2000/svg">
<path d="M46.1744 0.819824V20.7834H38.4355C28.6573 20.7834 20.7812 28.6593 20.7812 38.4369C20.7812 48.2112 28.6573 56.0871 38.4323 56.0871H46.1744V76.0506C63.8254 72.6553 77.0021 57.1757 77.0021 38.4336C77.0021 19.8309 63.8317 4.35116 46.1744 0.819824Z" fill="#003791"/>
<path d="M38.4326 62.33C25.2591 62.33 14.5268 51.603 14.5268 38.4334C14.5268 25.2636 25.2559 14.5335 38.4265 14.5335H39.9231V0H38.4295C17.2489 0 0 17.2485 0 38.4301C0 59.7511 17.2489 76.9996 38.4326 76.9996H39.9262V62.3364H38.4326V62.33Z" fill="#FF4B5F"/>
</svg>
