<svg width="17" height="18" viewBox="0 0 17 18" fill="none" xmlns="http://www.w3.org/2000/svg">
<path d="M8.30829 17.9999C7.57385 17.9999 6.86948 17.7081 6.35015 17.1888C5.83082 16.6694 5.53906 15.9651 5.53906 15.2306C5.53906 15.047 5.612 14.8709 5.74183 14.7411C5.87167 14.6113 6.04776 14.5383 6.23137 14.5383H10.3852C10.5688 14.5383 10.7449 14.6113 10.8748 14.7411C11.0046 14.8709 11.0775 15.047 11.0775 15.2306C11.0775 15.9651 10.7858 16.6694 10.2664 17.1888C9.7471 17.7081 9.04274 17.9999 8.30829 17.9999ZM7.1106 15.9229C7.23232 16.1328 7.40702 16.3069 7.61721 16.428C7.82741 16.5491 8.06572 16.6128 8.30829 16.6128C8.55086 16.6128 8.78918 16.5491 8.99937 16.428C9.20957 16.3069 9.38427 16.1328 9.50599 15.9229H7.1106Z" fill="#FF4B5F"/>
<path d="M9.69201 2.76923H6.92278C6.73917 2.76923 6.56307 2.69629 6.43324 2.56646C6.30341 2.43663 6.23047 2.26053 6.23047 2.07692C6.23047 1.52609 6.44929 0.997815 6.83879 0.608317C7.22828 0.218818 7.75656 0 8.30739 0C8.85823 0 9.3865 0.218818 9.776 0.608317C10.1655 0.997815 10.3843 1.52609 10.3843 2.07692C10.3843 2.26053 10.3114 2.43663 10.1815 2.56646C10.0517 2.69629 9.87562 2.76923 9.69201 2.76923Z" fill="#FF4B5F"/>
<path d="M15.9231 15.923H0.692309C0.508698 15.923 0.332607 15.85 0.202774 15.7202C0.0729409 15.5904 1.46151e-06 15.4143 1.46151e-06 15.2307C-0.000605692 14.4488 0.187968 13.6784 0.549627 12.9852C0.911287 12.2921 1.43529 11.6967 2.07692 11.2499V7.61529C2.07689 5.96996 2.72764 4.3914 3.88716 3.22409C5.04669 2.05678 6.62086 1.39549 8.26615 1.38452H8.34231C9.99481 1.38452 11.5796 2.04098 12.7481 3.20947C13.9166 4.37797 14.5731 5.96279 14.5731 7.61529V11.2499C15.2083 11.7005 15.7256 12.2976 16.0811 12.9905C16.4366 13.6834 16.6199 14.4519 16.6154 15.2307C16.6154 15.4143 16.5424 15.5904 16.4126 15.7202C16.2828 15.85 16.1067 15.923 15.9231 15.923ZM1.45385 14.5384H15.1615C15.0635 14.0584 14.8647 13.6047 14.5782 13.2073C14.2918 12.8099 13.9243 12.4778 13.5 12.233C13.3944 12.172 13.3067 12.0842 13.2459 11.9784C13.1851 11.8726 13.1534 11.7527 13.1538 11.6307V7.61529C13.1538 6.33001 12.6433 5.09737 11.7344 4.18854C10.8256 3.27971 9.59297 2.76914 8.30769 2.76914C7.02241 2.76914 5.78978 3.27971 4.88095 4.18854C3.97212 5.09737 3.46154 6.33001 3.46154 7.61529V11.6307C3.46202 11.7527 3.43026 11.8726 3.36948 11.9784C3.30869 12.0842 3.22104 12.172 3.11539 12.233C2.69108 12.4778 2.32356 12.8099 2.03714 13.2073C1.75071 13.6047 1.5519 14.0584 1.45385 14.5384Z" fill="#FF4B5F"/>
</svg>
