<svg width="20" height="24" viewBox="0 0 20 24" fill="none" xmlns="http://www.w3.org/2000/svg">
<path d="M9.59922 12.65C8.36309 12.65 7.15471 12.2834 6.12691 11.5967C5.0991 10.9099 4.29802 9.93381 3.82497 8.79177C3.35193 7.64974 3.22816 6.39307 3.46931 5.18069C3.71047 3.96831 4.30573 2.85466 5.1798 1.98059C6.05388 1.10651 7.16753 0.511252 8.37991 0.270095C9.59229 0.0289373 10.849 0.152708 11.991 0.625756C13.133 1.0988 14.1091 1.89988 14.7959 2.92769C15.4827 3.9555 15.8492 5.16387 15.8492 6.4C15.8492 8.05761 15.1907 9.64732 14.0186 10.8194C12.8465 11.9915 11.2568 12.65 9.59922 12.65ZM9.59922 1.45C8.6202 1.45 7.66317 1.74032 6.84915 2.28423C6.03513 2.82814 5.40067 3.60123 5.02602 4.50572C4.65136 5.41021 4.55334 6.40549 4.74433 7.3657C4.93533 8.32591 5.40677 9.20791 6.09904 9.90018C6.79131 10.5925 7.67332 11.0639 8.63352 11.2549C9.59373 11.4459 10.589 11.3479 11.4935 10.9732C12.398 10.5986 13.1711 9.9641 13.715 9.15007C14.2589 8.33605 14.5492 7.37902 14.5492 6.4C14.5492 5.08718 14.0277 3.82813 13.0994 2.89982C12.1711 1.97152 10.912 1.45 9.59922 1.45Z" fill="#003791" stroke="white" stroke-width="0.3"/>
<path d="M0.4685 16.241L0.468501 16.241L0.469174 16.2406L4.46132 13.8453C4.60609 13.7821 4.76904 13.7737 4.91966 13.8219C5.07292 13.871 5.20252 13.9752 5.2834 14.1143C5.36428 14.2534 5.39068 14.4175 5.3575 14.575C5.32474 14.7305 5.23619 14.8685 5.10869 14.963L1.52249 17.1275L1.45 17.1713V17.256V20C1.45 20.6763 1.71866 21.3249 2.19688 21.8031C2.6751 22.2813 3.3237 22.55 4 22.55H15.2C15.8763 22.55 16.5249 22.2813 17.0031 21.8031C17.4813 21.3249 17.75 20.6763 17.75 20V17.256V17.1711L17.6773 17.1274L14.0693 14.9594L14.0618 14.9549L14.0538 14.9513C13.9709 14.9138 13.8968 14.8594 13.8363 14.7915C13.7758 14.7236 13.7302 14.6438 13.7024 14.5572C13.6747 14.4705 13.6654 14.3791 13.6753 14.2886C13.6851 14.1982 13.7138 14.1109 13.7595 14.0323C13.8053 13.9536 13.867 13.8855 13.9407 13.8322C14.0144 13.7789 14.0984 13.7417 14.1874 13.7229C14.2764 13.7042 14.3684 13.7043 14.4573 13.7233C14.5463 13.7423 14.6302 13.7798 14.7038 13.8333L14.7034 13.8338L14.7148 13.8406L18.7148 16.2406L18.7148 16.2406L18.7185 16.2427C18.818 16.2986 18.9009 16.3797 18.9591 16.4778C19.0172 16.5757 19.0485 16.6872 19.05 16.801V20C19.05 21.021 18.6444 22.0003 17.9224 22.7223C17.2003 23.4443 16.2211 23.85 15.2 23.85H4C2.97892 23.85 1.99965 23.4443 1.27764 22.7223C0.555624 22.0003 0.15 21.021 0.15 20V16.8C0.15 16.8 0.15 16.8 0.15 16.8C0.150024 16.6872 0.1794 16.5763 0.235238 16.4783C0.291082 16.3803 0.37147 16.2985 0.4685 16.241Z" fill="#003791" stroke="white" stroke-width="0.3"/>
</svg>
