<svg width="23" height="24" viewBox="0 0 23 24" fill="none" xmlns="http://www.w3.org/2000/svg">
<path d="M19.5136 1.82396H18.0393V1.69846C18.0393 0.791381 17.3014 0.0534968 16.3946 0.0534968C15.4884 0.0534968 14.7509 0.791419 14.7509 1.69846V1.82396H7.64706V1.64365C7.64706 0.737342 6.90956 0 6.00341 0C5.09652 0 4.35863 0.737342 4.35863 1.64365V1.82396H3.14102C1.40892 1.82396 0 3.31943 0 5.15775V20.6662C0 22.5045 1.40888 24 3.14102 24H19.5136C21.245 24 22.6535 22.5045 22.6535 20.6662V5.15775C22.6535 3.31943 21.245 1.82396 19.5136 1.82396ZM15.5251 1.69846C15.5251 1.21839 15.9152 0.82769 16.3946 0.82769C16.8746 0.82769 17.2651 1.21839 17.2651 1.69846V2.88283C17.2651 3.3629 16.8746 3.7536 16.3946 3.7536C15.9152 3.7536 15.5251 3.3629 15.5251 2.88283V1.69846ZM5.13283 1.64365C5.13283 1.16431 5.52333 0.774194 6.00341 0.774194C6.48275 0.774194 6.87286 1.16431 6.87286 1.64365V2.82933C6.87286 3.30867 6.48275 3.69879 6.00341 3.69879C5.52333 3.69879 5.13283 3.30867 5.13283 2.82933V1.64365ZM21.8793 20.6662C21.8793 22.0776 20.8182 23.2258 19.5136 23.2258H3.14102C1.83608 23.2258 0.774194 22.0776 0.774194 20.6662V6.52846H21.8793V20.6662ZM21.8793 5.75427H0.774232V5.15775C0.774232 3.7464 1.83612 2.59815 3.14106 2.59815H4.35867V2.82933C4.35867 3.73564 5.09659 4.47298 6.00345 4.47298C6.90956 4.47298 7.6471 3.73564 7.6471 2.82933V2.59815H14.7509V2.88283C14.7509 3.78991 15.4885 4.52779 16.3946 4.52779C17.3015 4.52779 18.0394 3.78987 18.0394 2.88283V2.59815H19.5137C20.8182 2.59815 21.8793 3.7464 21.8793 5.15775L21.8793 5.75427Z" fill="#FF4B5F"/>
<path d="M3.36366 21.3169H7.34464H19.2875C19.5015 21.3169 19.6746 21.1436 19.6746 20.9298V8.98634C19.6746 8.77259 19.5015 8.59924 19.2875 8.59924H3.36366C3.14971 8.59924 2.97656 8.77259 2.97656 8.98634V20.9298C2.97656 21.1436 3.14971 21.3169 3.36366 21.3169ZM18.9005 16.5616H15.6937V13.3546H18.9005V16.5616ZM14.9195 16.5616H11.7127V13.3546H14.9195V16.5616ZM10.9385 16.5616H7.73174V13.3546H10.9385V16.5616ZM6.95754 16.5616H3.75076V13.3546H6.95754V16.5616ZM3.75076 17.3358H6.95754V20.5428H3.75076V17.3358ZM7.73174 17.3358H10.9385V20.5428H7.73174V17.3358ZM11.7127 17.3358H14.9195V20.5428H11.7127V17.3358ZM18.9005 20.5427H15.6937V17.3357H18.9005V20.5427ZM18.9005 12.5804H15.6937V9.37344H18.9005V12.5804ZM14.9195 12.5804H11.7127V9.37344H14.9195V12.5804ZM10.9385 12.5804H7.73174V9.37344H10.9385V12.5804ZM3.75076 9.37344H6.95754V12.5804H3.75076V9.37344Z" fill="#FF4B5F"/>
</svg>
