<svg width="19" height="24" viewBox="0 0 19 24" fill="none" xmlns="http://www.w3.org/2000/svg">
<path d="M9.21094 5.41303e-05C9.08954 0.0015062 8.97359 0.0507344 8.88823 0.137073C6.5599 2.48907 3.59881 4.11199 0.364185 4.81195C0.260835 4.83426 0.168277 4.89138 0.101988 4.97375C0.0356985 5.05612 -0.000303352 5.15875 1.92558e-06 5.26448V14.0626C1.92558e-06 16.5453 0.958468 18.3407 2.55649 19.8084C4.15452 21.276 6.36556 22.4631 8.98738 23.9424C9.05688 23.9808 9.13512 24.0007 9.21455 24.0001H9.22897C9.30839 24.0007 9.38664 23.9808 9.45613 23.9424C12.078 22.4631 14.289 21.276 15.887 19.8084C17.4851 18.3407 18.4435 16.5453 18.4435 14.0626V5.26087C18.4438 5.15514 18.4078 5.05251 18.3415 4.97014C18.2752 4.88777 18.1827 4.83066 18.0793 4.80835C14.8413 4.11133 11.8761 2.48764 9.54448 0.135271C9.50077 0.0915443 9.44872 0.0570435 9.39143 0.033816C9.33413 0.0105884 9.27276 -0.000892619 9.21094 5.41303e-05ZM9.21635 1.03311C11.5328 3.26492 14.391 4.83109 17.5204 5.57638V14.0626C17.5204 16.3178 16.7289 17.7826 15.2632 19.1287C13.8427 20.4333 11.7423 21.5918 9.22176 23.0121C6.70117 21.5918 4.6008 20.4333 3.18029 19.1287C1.71464 17.7826 0.923079 16.3178 0.923079 14.0626V5.57998C4.04897 4.83201 6.90328 3.26446 9.21635 1.03311ZM9.22176 6.4634C6.16842 6.4634 3.6833 8.94851 3.6833 12.0019C3.6833 15.0552 6.16842 17.5403 9.22176 17.5403C12.2751 17.5403 14.7602 15.0552 14.7602 12.0019C14.7602 8.94851 12.2751 6.4634 9.22176 6.4634ZM9.22176 7.38647C11.7762 7.38647 13.8371 9.44743 13.8371 12.0019C13.8371 13.0931 13.4449 14.0795 12.8149 14.8684C12.5436 13.6905 11.7098 12.7285 10.61 12.2795C10.8911 11.9552 11.0679 11.5383 11.0679 11.0788C11.0679 10.0647 10.2359 9.23263 9.22176 9.23263C8.20762 9.23263 7.37561 10.0647 7.3756 11.0788C7.37561 11.5374 7.55158 11.9537 7.83173 12.2777C6.73469 12.7258 5.89701 13.6856 5.625 14.8666C4.99637 14.0782 4.60637 13.0918 4.60637 12.0019C4.60637 9.44743 6.66728 7.38647 9.22176 7.38647ZM9.22176 10.1557C9.73703 10.1557 10.1448 10.5635 10.1448 11.0788C10.1448 11.594 9.73703 12.0019 9.22176 12.0019C8.70649 12.0019 8.29868 11.594 8.29868 11.0788C8.29868 10.5635 8.70649 10.1557 9.22176 10.1557ZM9.25421 12.9249C10.7622 12.9425 11.9718 14.152 11.991 15.6599C11.9915 15.6647 11.9921 15.6695 11.9928 15.6743C11.22 16.2577 10.2676 16.6172 9.22176 16.6172C8.17358 16.6172 7.21901 16.2564 6.44532 15.6707C6.4504 15.6458 6.45342 15.6205 6.45433 15.595C6.50895 14.088 7.74626 12.9072 9.25421 12.9249Z" fill="#FF4B5F"/>
</svg>
