<svg width="21" height="21" viewBox="0 0 21 21" fill="none" xmlns="http://www.w3.org/2000/svg">
<path d="M10.0531 0C4.49829 0 0 4.49829 0 10.0531C0 15.608 4.5143 20.1063 10.0531 20.1063C15.592 20.1063 20.1063 15.592 20.1063 10.0531C20.1063 4.5143 15.608 0 10.0531 0ZM10.0531 1.21662C12.2302 1.21662 14.2153 2.00102 15.752 3.31369L13.3188 5.73092C12.4063 5.04257 11.2697 4.62636 10.0531 4.62636C8.83651 4.62636 7.68392 5.04257 6.78746 5.73092L4.35422 3.31369C5.891 2.01703 7.87602 1.21662 10.0531 1.21662ZM14.2473 10.0531C14.2473 12.3583 12.3743 14.2473 10.0531 14.2473C7.73194 14.2473 5.85899 12.3583 5.85899 10.0531C5.85899 7.74795 7.74795 5.85899 10.0531 5.85899C12.3583 5.85899 14.2473 7.74795 14.2473 10.0531ZM1.21662 10.0531C1.21662 7.79598 2.06505 5.73092 3.47377 4.17813L5.891 6.59536C5.1066 7.53985 4.64237 8.74046 4.64237 10.0531C4.64237 11.2858 5.05858 12.4223 5.74693 13.3188L3.31369 15.752C2.01703 14.2153 1.21662 12.2302 1.21662 10.0531ZM10.0531 18.8896C7.79598 18.8896 5.73092 18.0412 4.17813 16.6325L6.59536 14.2153C7.53985 14.9997 8.74046 15.4639 10.0531 15.4639C11.3658 15.4639 12.5824 14.9997 13.5109 14.2153L15.9281 16.6325C14.3753 18.0252 12.3103 18.8896 10.0531 18.8896ZM16.7926 15.752L14.3753 13.3188C15.0637 12.4063 15.4799 11.2697 15.4799 10.0531C15.4799 8.74046 15.0157 7.52384 14.2313 6.59536L16.6485 4.17813C18.0412 5.74693 18.9056 7.79598 18.9056 10.0531C18.8896 12.2302 18.0892 14.2153 16.7926 15.752Z" fill="#FF4B5F"/>
</svg>
