<svg width="20" height="24" viewBox="0 0 20 24" fill="none" xmlns="http://www.w3.org/2000/svg">
<path d="M18.2137 23.9H18.2131L1.28219 23.9L1.2816 23.9C1.12733 23.9009 0.974402 23.8715 0.831534 23.8133C0.688666 23.7551 0.558659 23.6693 0.448937 23.5609C0.339215 23.4524 0.251927 23.3234 0.192055 23.1813C0.132221 23.0392 0.100942 22.8867 0.1 22.7325V3.52375C0.104268 3.3528 0.144655 3.18469 0.218513 3.03046C0.29254 2.87587 0.398509 2.73874 0.529427 2.62811C0.660345 2.51749 0.813234 2.43588 0.978006 2.38869C1.14278 2.34149 1.31569 2.32977 1.48532 2.3543L1.49244 2.35533H1.49963H2.89927V3.65497H1.49963H1.39963V3.75497V22.5004V22.6004H1.49963H17.9956H18.0956V22.5004V3.75497V3.65497H17.9956H16.596V2.35533H18.1831V2.35538L18.186 2.35529C18.3426 2.35068 18.4985 2.37743 18.6446 2.43396C18.7906 2.4905 18.9239 2.57567 19.0366 2.68448C19.1493 2.79329 19.239 2.92353 19.3006 3.06755C19.3622 3.21146 19.3944 3.36622 19.3952 3.52273C19.3952 3.52284 19.3953 3.52296 19.3953 3.52307V22.7323C19.3953 22.7324 19.3952 22.7325 19.3952 22.7326C19.3943 22.8867 19.363 23.0392 19.3032 23.1813C19.2433 23.3234 19.156 23.4524 19.0463 23.5609C18.9366 23.6693 18.8066 23.7551 18.6637 23.8133C18.5208 23.8715 18.3679 23.9009 18.2137 23.9ZM18.2131 24H1.28219C1.11479 24.001 0.948841 23.969 0.793811 23.9059C0.63878 23.8427 0.497706 23.7497 0.378643 23.632C0.259581 23.5143 0.164862 23.3744 0.0998937 23.2201C0.0349258 23.0658 0.000981783 22.9002 0 22.7328L18.2131 24Z" fill="#003791" stroke="white" stroke-width="0.2"/>
<path d="M8.6722 15.7778L8.74291 15.8485L8.81362 15.7778L15.2892 9.30218C15.4131 9.1973 15.5718 9.14256 15.7341 9.14882C15.8977 9.15514 16.0528 9.22294 16.1685 9.33867C16.2843 9.4544 16.3521 9.60953 16.3584 9.77308C16.3647 9.93538 16.3099 10.0941 16.205 10.218L8.74291 17.6801L4.79767 13.7349C4.69375 13.6103 4.64016 13.4513 4.64755 13.2891C4.655 13.1256 4.7239 12.9709 4.84047 12.8559C4.95705 12.741 5.1127 12.6743 5.27632 12.6692C5.43882 12.6641 5.59729 12.7201 5.72047 12.826L8.6722 15.7778Z" fill="#003791" stroke="white" stroke-width="0.2"/>
<path d="M6.84315 2.35533H6.92077L6.94003 2.28014C7.09971 1.65649 7.4624 1.10373 7.97094 0.708994C8.47948 0.314257 9.10493 0.1 9.7487 0.1C10.3925 0.1 11.0179 0.314257 11.5264 0.708994C12.035 1.10373 12.3977 1.65649 12.5574 2.28014L12.5766 2.35533H12.6542H13.9964C14.434 2.35533 14.8538 2.52868 15.1639 2.83744C15.4739 3.14616 15.6491 3.5651 15.651 4.00261C15.651 4.00269 15.651 4.00276 15.651 4.00283L15.651 6.65424H3.85391V4.00262C3.85582 3.56633 4.02999 3.14844 4.3385 2.83993C4.64702 2.53142 5.06489 2.35725 5.50119 2.35533H6.84315ZM5.15354 5.2546V5.3546H5.25354H14.2513H14.3513V5.2546V4.00241C14.3513 3.91026 14.3147 3.82189 14.2496 3.75673C14.1844 3.69157 14.0961 3.65497 14.0039 3.65497H11.3521V3.00515C11.3521 2.5809 11.1835 2.17403 10.8836 1.87404C10.5836 1.57405 10.1767 1.40552 9.75244 1.40552C9.32819 1.40552 8.92132 1.57405 8.62133 1.87404C8.32134 2.17403 8.15281 2.5809 8.15281 3.00515V3.65497H5.50098C5.45535 3.65497 5.41017 3.66395 5.36802 3.68141C5.32587 3.69887 5.28757 3.72447 5.2553 3.75673C5.22304 3.78899 5.19745 3.82729 5.17999 3.86945C5.16253 3.9116 5.15354 3.95678 5.15354 4.00241V5.2546Z" fill="#003791" stroke="white" stroke-width="0.2"/>
</svg>
