<svg width="24" height="24" viewBox="0 0 24 24" fill="none" xmlns="http://www.w3.org/2000/svg">
<g clip-path="url(#clip0_1799_2467)">
<path fill-rule="evenodd" clip-rule="evenodd" d="M5.46191 6.43758L8.26241 3.63708L9.24116 4.61583L5.45103 8.40596L3.06641 6.02171L4.05641 5.03171L5.46191 6.43758ZM21.0079 6.73983H10.5105V5.25146H21.0079V6.73983Z" fill="#FF4B5F"/>
<path fill-rule="evenodd" clip-rule="evenodd" d="M5.46191 6.43758L8.26241 3.63708L9.24116 4.61583L5.45103 8.40596L3.06641 6.02171L4.05641 5.03171L5.46191 6.43758ZM21.0079 6.73983H10.5105V5.25146H21.0079V6.73983Z" fill="#FF4B5F"/>
<path fill-rule="evenodd" clip-rule="evenodd" d="M5.46191 18.4376L8.26241 15.6371L9.24116 16.6158L5.45103 20.406L3.06641 18.0217L4.05641 17.0317L5.46191 18.4376ZM21.0079 18.7398H10.5105V17.2515H21.0079V18.7398Z" fill="#FF4B5F"/>
<path fill-rule="evenodd" clip-rule="evenodd" d="M5.46191 18.4376L8.26241 15.6371L9.24116 16.6158L5.45103 20.406L3.06641 18.0217L4.05641 17.0317L5.46191 18.4376ZM21.0079 18.7398H10.5105V17.2515H21.0079V18.7398Z" fill="#FF4B5F"/>
<path fill-rule="evenodd" clip-rule="evenodd" d="M5.46191 12.4376L8.26241 9.63708L9.24116 10.6158L5.45103 14.406L3.06641 12.0217L4.05641 11.0317L5.46191 12.4376ZM21.0079 12.7398H10.5105V11.2515H21.0079V12.7398Z" fill="#FF4B5F"/>
<path fill-rule="evenodd" clip-rule="evenodd" d="M5.46191 12.4376L8.26241 9.63708L9.24116 10.6158L5.45103 14.406L3.06641 12.0217L4.05641 11.0317L5.46191 12.4376ZM21.0079 12.7398H10.5105V11.2515H21.0079V12.7398Z" fill="#FF4B5F"/>
</g>
<defs>
<clipPath id="clip0_1799_2467">
<rect width="24" height="24" fill="white"/>
</clipPath>
</defs>
</svg>
